<svg version="1.2" xmlns="http://www.w3.org/2000/svg" viewBox="0 0 150 150" width="150" height="150">
	<defs>
		<radialGradient id="g1" cx="0" cy="0" r="1" gradientUnits="userSpaceOnUse" gradientTransform="matrix(44.907,0,0,44.907,96.328,46.988)">
			<stop offset="0" stop-color="#1ab3d4" stop-opacity=".15"/>
			<stop offset=".747" stop-color="#48b4f4" stop-opacity="1"/>
		</radialGradient>
		<radialGradient id="g2" cx="0" cy="0" r="1" gradientUnits="userSpaceOnUse" gradientTransform="matrix(46.407,0,0,46.407,74.604,74.873)">
			<stop offset=".857" stop-color="#119bce"/>
			<stop offset="1" stop-color="#ffffff"/>
		</radialGradient>
	</defs>
	<style>
		.s0 { fill: url(#g1);stroke: url(#g2);stroke-linecap: round;stroke-linejoin: round;stroke-width: 3 } 
		.s1 { fill: #85e197;stroke: #63bf42;stroke-width: .8 } 
	</style>
	<g id="layer1">
		<path id="path8142" fill-rule="evenodd" class="s0" d="m74.6 118.81c-24.83 0-44.9-19.64-44.9-43.94 0-24.29 20.07-43.93 44.9-43.93 24.84 0 44.91 19.64 44.91 43.93 0 24.3-20.07 43.94-44.91 43.94z"/>
		<path id="path9618" class="s1" d="m47.15 46.59c-2.32 0.75-6.22 3-8.11 5.42-1.9 2.43-1.79 5.02-1.14 9.13 0.65 4.1 1.84 9.72 4.21 13.78 2.38 4.05 5.95 6.54 8.65 7.47 2.7 0.94 4.54 0.33 6.32-0.1 1.78-0.44 3.51-0.69 4.04-0.19 0.52 0.49-0.16 1.74-0.16 2.82 0 1.08 0.68 2 1.94 2.89 1.26 0.89 3.1 1.75 2.02 4.08-1.08 2.32-5.08 6.1-6.22 9.02-1.13 2.92 0.6 4.97 1.8 6.73 1.2 1.76 1.87 3.23 2.79 4.56 0.91 1.33 2.08 2.52 3.73 3.23 1.64 0.7 3.76 0.92 6.57 0.94 2.81 0.02 6.31-0.15 8.6-0.46 2.29-0.3 3.37-0.73 3.91-1.92 0.54-1.19 0.54-3.14 0.22-4.59-0.32-1.46-0.97-2.44-0.54-3.73 0.43-1.3 1.94-2.92-0.68-5.73-2.63-2.8-9.41-6.79-13.61-10.18-4.2-3.38-5.84-6.16-5.54-8.17 0.31-2 2.56-3.23 4.11-3.14 1.56 0.09 2.43 1.49 2.88 0.2 0.45-1.29 0.48-5.28 1.18-7.71 0.71-2.43 2.08-3.31 3.41-4.77 1.33-1.47 2.63-3.52 4.41-5.79 1.79-2.27 4.05-4.75 2.49-6.48-1.57-1.73-6.97-2.71-10.59-2.33-3.62 0.38-5.46 2.11-6.87 2.97-1.4 0.87-2.37 0.87-3.12 0.53-0.74-0.35-1.25-1.04-1.25-2.23 0-1.18 0.51-2.87 0.17-3.88-0.34-1.01-1.53-1.33-2.77-1.49-1.24-0.17-2.54-0.17-4.05-0.17-1.51 0-3.24 0-4.48-0.37-1.24-0.36-1.99-1.1-4.32-0.34z"/>
		<path id="path9630" class="s1" d="m104.76 52.39c-1.3 0.7-3.03 2.11-5.3 3.62-2.27 1.52-5.08 3.14-6.75 4.81-1.68 1.68-2.22 3.41-1.51 4.49 0.7 1.08 2.64 1.51 4.64 1.73 2 0.21 4.06 0.21 6-0.11 1.95-0.33 3.78-0.97 5.08-1.3 1.3-0.32 2.06-0.32 2.65 0.11 0.59 0.43 1.03 1.3 1.57 2.11 0.54 0.81 1.19 1.56 2.21 2.05 1.03 0.49 2.43 0.7 2.49-1.84 0.05-2.54-1.24-7.83-2.81-11.02-1.57-3.19-3.41-4.27-4.76-4.81-1.35-0.54-2.21-0.54-3.51 0.16z"/>
		<path id="path9634" class="s1" d="m108.69 75.81c-1.89-0.43-5.67-1.29-9.24-2.21-3.56-0.92-6.91-1.89-9.24-1.08-2.32 0.81-3.62 3.4-4.27 6.48-0.65 3.08-0.65 6.65 0.6 10.54 1.24 3.89 3.73 8.11 6.21 9.84 2.49 1.72 4.97 0.97 6.27 1.24 1.3 0.27 1.41 1.57 1.62 2.73 0.22 1.17 0.54 2.21 1.3 2.32 0.75 0.11 1.94-0.72 3.2-1.91 1.25-1.19 2.57-2.75 3.22-4.1 0.65-1.35 0.63-2.49 0.89-3.87 0.25-1.39 0.79-3.01 1.39-4.09 0.59-1.08 1.24-1.62 2.43-3.19 1.19-1.56 2.92-4.16 2.6-6.37-0.33-2.22-2.71-4.06-3.9-4.98-1.18-0.91-1.18-0.91-3.08-1.35z"/>
	</g>
</svg>